<?xml version="1.0" standalone="no"?>
<!DOCTYPE svg PUBLIC "-//W3C//DTD SVG 20010904//EN"
 "http://www.w3.org/TR/2001/REC-SVG-20010904/DTD/svg10.dtd">
<svg version="1.0" xmlns="http://www.w3.org/2000/svg"
 width="349.000000pt" height="532.000000pt" viewBox="0 0 349.000000 532.000000"
 preserveAspectRatio="xMidYMid meet">

<g transform="translate(0.000000,532.000000) scale(0.100000,-0.100000)"
fill="#000000" stroke="none">
<path d="M1670 3835 c0 -16 -7 -66 -15 -109 -8 -44 -13 -94 -9 -111 7 -37 39
-95 53 -95 14 0 41 77 41 120 0 21 5 42 10 45 18 11 11 -107 -9 -150 -10 -22
-47 -67 -81 -100 -71 -68 -103 -125 -121 -213 l-13 -61 -35 41 c-69 80 -91
132 -74 175 6 14 9 8 13 -21 6 -48 23 -56 46 -21 19 28 30 185 14 185 -11 0
-52 -54 -75 -99 -15 -31 -18 -96 -4 -141 3 -11 -5 -13 -33 -11 -66 5 -128 -44
-128 -101 l0 -28 33 20 c17 11 39 20 48 20 9 0 27 9 40 20 l24 19 -22 1 c-28
0 -38 16 -14 23 26 6 90 -24 124 -58 15 -15 32 -46 38 -69 6 -22 21 -76 35
-119 13 -43 24 -84 24 -92 0 -7 4 -15 8 -17 5 -1 39 -37 75 -80 37 -42 90 -93
119 -115 l53 -38 -115 -5 c-110 -5 -118 -7 -200 -48 -73 -37 -92 -42 -150 -42
-63 0 -139 24 -154 48 -3 6 7 4 22 -4 37 -18 144 -29 166 -17 15 8 15 12 -6
43 -33 49 -77 70 -197 95 -58 12 -115 26 -125 30 -27 12 -17 -11 33 -78 73
-97 153 -140 258 -141 40 -1 73 -4 73 -9 0 -4 -9 -24 -20 -44 -45 -84 -17
-210 63 -278 80 -69 202 -69 272 0 90 91 25 235 -107 235 -46 0 -119 -27 -132
-49 -3 -4 29 -23 71 -41 71 -29 79 -31 120 -19 53 14 45 30 -30 56 l-52 18 37
3 c54 5 95 -20 109 -67 22 -74 -13 -132 -94 -156 -85 -24 -165 7 -218 83 -34
49 -39 153 -11 208 25 49 74 96 129 124 58 30 203 33 286 6 131 -43 250 -156
325 -311 43 -89 87 -203 80 -210 -2 -2 -26 7 -53 21 -43 22 -59 25 -112 20
-67 -6 -149 -35 -123 -43 8 -3 45 -18 82 -34 36 -16 81 -29 98 -29 32 0 70 15
70 28 0 9 -56 44 -85 54 -16 5 -14 6 9 7 52 2 112 -48 131 -109 7 -24 7 -24
-9 -5 -15 19 -15 18 -16 -27 -1 -197 -129 -368 -326 -436 -100 -34 -253 -48
-384 -33 -342 37 -476 170 -506 504 -15 163 -24 64 -24 -253 l0 -330 338 0
c579 0 695 28 858 203 112 122 167 270 166 447 -1 123 -10 154 -45 158 -24 3
-27 0 -27 -25 0 -15 4 -44 9 -63 5 -19 12 -71 15 -115 5 -76 5 -78 -7 -40 -8
22 -22 79 -32 128 -16 75 -16 93 -5 127 7 22 19 45 27 51 15 13 17 29 4 29 -6
0 -18 -14 -28 -31 -18 -30 -18 -30 -24 -7 l-6 23 -10 -25 c-10 -24 -11 -23
-38 30 -16 30 -41 80 -57 110 -31 61 -35 113 -14 155 13 26 14 23 9 -34 -6
-68 7 -80 44 -38 30 33 33 41 44 109 5 35 12 71 15 81 8 27 -13 20 -57 -20
-51 -46 -79 -100 -79 -153 0 -22 -4 -40 -8 -40 -4 0 -24 16 -43 36 -18 19 -61
52 -94 72 -97 58 -175 120 -257 203 -160 163 -203 342 -123 517 32 71 57 97
117 128 191 97 371 -122 225 -273 -25 -27 -39 -33 -71 -33 -74 1 -120 64 -92
125 l14 30 1 -47 c1 -56 15 -68 41 -36 16 19 19 36 18 96 -1 40 -6 76 -10 78
-16 10 -76 -62 -87 -103 -19 -71 11 -131 79 -153 105 -35 201 81 176 213 -16
86 -138 167 -228 153 -36 -6 -40 -5 -33 11 30 70 37 102 32 151 -6 58 -42 141
-81 187 l-25 30 -1 -30z"/>
<path d="M1790 3703 c0 -42 9 -49 80 -67 119 -31 208 -86 319 -200 57 -58 78
-64 59 -18 -6 15 -16 41 -23 57 -7 17 -25 65 -40 108 -34 94 -26 89 -223 123
-179 30 -172 30 -172 -3z"/>
<path d="M1535 3701 c-85 -25 -108 -36 -171 -76 -112 -72 -202 -192 -247 -328
-15 -47 -20 -91 -21 -177 -1 -130 18 -208 77 -314 32 -59 32 -59 100 -76 37
-9 80 -26 95 -37 25 -19 66 -71 74 -95 2 -6 39 6 89 30 65 32 101 43 158 48
l75 7 -46 39 c-78 68 -311 132 -394 109 -21 -6 -40 -8 -42 -6 -3 2 12 21 32
41 l37 37 -40 37 c-22 20 -53 63 -68 96 -25 53 -28 69 -28 169 1 104 2 114 35
180 60 124 171 215 306 250 32 8 59 16 60 18 2 2 7 18 10 35 8 38 -1 40 -91
13z"/>
<path d="M1438 2920 c-15 -4 -42 -18 -59 -31 l-32 -23 59 -12 c32 -7 71 -13
86 -13 33 -1 78 18 78 33 0 14 -46 36 -79 37 -21 1 -20 3 9 9 l35 7 -35 1
c-19 0 -47 -3 -62 -8z"/>
<path d="M1891 2664 c19 -14 61 -41 95 -60 33 -19 69 -43 79 -54 25 -27 35
-25 35 8 0 24 -8 33 -49 55 -45 25 -173 77 -188 77 -4 0 9 -12 28 -26z"/>
<path d="M1650 2599 c-58 -10 -138 -55 -124 -69 10 -9 93 -42 244 -96 234 -83
357 -157 419 -251 19 -29 36 -51 38 -49 7 6 -48 140 -82 201 -109 195 -301
298 -495 264z"/>
<path d="M2183 2464 l-21 -15 36 -61 35 -60 18 23 17 24 7 -28 c8 -30 17 -34
34 -13 10 12 7 22 -13 53 -27 43 -73 93 -84 92 -4 0 -17 -7 -29 -15z"/>
<path d="M2430 2381 c-38 -8 -100 -40 -100 -53 0 -12 8 -10 38 9 23 15 22 12
-10 -25 -41 -46 -45 -57 -24 -65 30 -12 86 15 147 70 35 31 66 60 67 65 4 9
-67 9 -118 -1z"/>
</g>
</svg>
